<mxfile host="app.diagrams.net" agent="Mozilla/5.0 (Windows NT 10.0; Win64; x64) AppleWebKit/537.36 (KHTML, like Gecko) Chrome/133.0.0.0 Safari/537.36" version="26.0.16">
  <diagram name="페이지-1" id="A7KoAqLpkC3rf8sDOBmB">
    <mxGraphModel dx="2876" dy="1114" grid="1" gridSize="10" guides="1" tooltips="1" connect="1" arrows="1" fold="1" page="1" pageScale="1" pageWidth="827" pageHeight="1169" math="0" shadow="0">
      <root>
        <mxCell id="0" />
        <mxCell id="1" parent="0" />
        <mxCell id="bvd-KYPhyM2sc9IYxR3U-28" value="쿠폰코드" style="ellipse;whiteSpace=wrap;html=1;fillColor=#f5f5f5;fontColor=#333333;strokeColor=#666666;strokeWidth=2;fontSize=18;fontStyle=1" vertex="1" parent="1">
          <mxGeometry x="360" y="845" width="120" height="80" as="geometry" />
        </mxCell>
        <mxCell id="BoZ32wy5WJJVuOqSIw8r-2" value="&lt;b&gt;쿠폰&lt;/b&gt;" style="rounded=0;whiteSpace=wrap;html=1;fillColor=#dae8fc;strokeColor=#6c8ebf;strokeWidth=2;fontSize=20;" parent="1" vertex="1">
          <mxGeometry x="690" y="410" width="131" height="70" as="geometry" />
        </mxCell>
        <mxCell id="BoZ32wy5WJJVuOqSIw8r-3" value="&lt;b&gt;회원&lt;/b&gt;" style="rounded=0;whiteSpace=wrap;html=1;fillColor=#dae8fc;strokeColor=#6c8ebf;strokeWidth=2;fontSize=20;" parent="1" vertex="1">
          <mxGeometry x="795.5" y="585" width="131" height="70" as="geometry" />
        </mxCell>
        <mxCell id="BoZ32wy5WJJVuOqSIw8r-4" value="주인" style="rounded=0;whiteSpace=wrap;html=1;fillColor=#dae8fc;strokeColor=#6c8ebf;strokeWidth=2;fontSize=20;fontStyle=1" parent="1" vertex="1">
          <mxGeometry x="-93.5" y="500" width="131" height="70" as="geometry" />
        </mxCell>
        <mxCell id="BoZ32wy5WJJVuOqSIw8r-5" value="숙소" style="rounded=0;whiteSpace=wrap;html=1;fillColor=#dae8fc;strokeColor=#6c8ebf;strokeWidth=2;fontSize=20;fontStyle=1" parent="1" vertex="1">
          <mxGeometry x="-50" y="972.5" width="131" height="70" as="geometry" />
        </mxCell>
        <mxCell id="BoZ32wy5WJJVuOqSIw8r-6" value="쿠폰이용&lt;span style=&quot;background-color: transparent; color: light-dark(rgb(0, 0, 0), rgb(255, 255, 255));&quot;&gt;내역&lt;/span&gt;" style="rounded=0;whiteSpace=wrap;html=1;fillColor=#dae8fc;strokeColor=#6c8ebf;strokeWidth=2;fontSize=20;fontStyle=1" parent="1" vertex="1">
          <mxGeometry x="339" y="625" width="131" height="70" as="geometry" />
        </mxCell>
        <mxCell id="BoZ32wy5WJJVuOqSIw8r-7" value="예약내역" style="rounded=0;whiteSpace=wrap;html=1;fillColor=#dae8fc;strokeColor=#6c8ebf;strokeWidth=2;fontSize=20;fontStyle=1" parent="1" vertex="1">
          <mxGeometry x="540" y="970" width="131" height="70" as="geometry" />
        </mxCell>
        <mxCell id="BoZ32wy5WJJVuOqSIw8r-18" value="&lt;b&gt;할인내용&lt;/b&gt;" style="ellipse;whiteSpace=wrap;html=1;fillColor=#f5f5f5;fontColor=#333333;strokeColor=#666666;strokeWidth=2;fontSize=18;" parent="1" vertex="1">
          <mxGeometry x="770" y="300" width="120" height="80" as="geometry" />
        </mxCell>
        <mxCell id="BoZ32wy5WJJVuOqSIw8r-19" value="만료기간" style="ellipse;whiteSpace=wrap;html=1;fillColor=#f5f5f5;fontColor=#333333;strokeColor=#666666;strokeWidth=2;fontSize=18;fontStyle=1" parent="1" vertex="1">
          <mxGeometry x="850" y="370" width="120" height="80" as="geometry" />
        </mxCell>
        <mxCell id="BoZ32wy5WJJVuOqSIw8r-20" value="쿠폰내용" style="ellipse;whiteSpace=wrap;html=1;fillColor=#f5f5f5;fontColor=#333333;strokeColor=#666666;strokeWidth=2;fontSize=18;fontStyle=1" parent="1" vertex="1">
          <mxGeometry x="640" y="300" width="120" height="80" as="geometry" />
        </mxCell>
        <mxCell id="BoZ32wy5WJJVuOqSIw8r-21" value="&lt;b&gt;쿠폰이름&lt;/b&gt;" style="ellipse;whiteSpace=wrap;html=1;fillColor=#f5f5f5;fontColor=#333333;strokeColor=#666666;strokeWidth=2;fontSize=18;" parent="1" vertex="1">
          <mxGeometry x="530" y="350" width="120" height="80" as="geometry" />
        </mxCell>
        <mxCell id="BoZ32wy5WJJVuOqSIw8r-22" value="" style="endArrow=none;html=1;rounded=0;entryX=1;entryY=1;entryDx=0;entryDy=0;exitX=0;exitY=0.25;exitDx=0;exitDy=0;strokeWidth=2;" parent="1" source="BoZ32wy5WJJVuOqSIw8r-2" target="BoZ32wy5WJJVuOqSIw8r-21" edge="1">
          <mxGeometry width="50" height="50" relative="1" as="geometry">
            <mxPoint x="560" y="510" as="sourcePoint" />
            <mxPoint x="610" y="460" as="targetPoint" />
          </mxGeometry>
        </mxCell>
        <mxCell id="BoZ32wy5WJJVuOqSIw8r-23" value="" style="endArrow=none;html=1;rounded=0;entryX=0.5;entryY=1;entryDx=0;entryDy=0;exitX=0.25;exitY=0;exitDx=0;exitDy=0;strokeWidth=2;" parent="1" source="BoZ32wy5WJJVuOqSIw8r-2" target="BoZ32wy5WJJVuOqSIw8r-20" edge="1">
          <mxGeometry width="50" height="50" relative="1" as="geometry">
            <mxPoint x="700" y="438" as="sourcePoint" />
            <mxPoint x="610" y="380" as="targetPoint" />
          </mxGeometry>
        </mxCell>
        <mxCell id="BoZ32wy5WJJVuOqSIw8r-24" value="" style="endArrow=none;html=1;rounded=0;entryX=0;entryY=1;entryDx=0;entryDy=0;exitX=0.5;exitY=0;exitDx=0;exitDy=0;strokeWidth=2;" parent="1" source="BoZ32wy5WJJVuOqSIw8r-2" target="BoZ32wy5WJJVuOqSIw8r-18" edge="1">
          <mxGeometry width="50" height="50" relative="1" as="geometry">
            <mxPoint x="733" y="420" as="sourcePoint" />
            <mxPoint x="740" y="380" as="targetPoint" />
          </mxGeometry>
        </mxCell>
        <mxCell id="BoZ32wy5WJJVuOqSIw8r-25" value="" style="endArrow=none;html=1;rounded=0;entryX=0;entryY=0.5;entryDx=0;entryDy=0;exitX=1;exitY=0.25;exitDx=0;exitDy=0;strokeWidth=2;" parent="1" source="BoZ32wy5WJJVuOqSIw8r-2" target="BoZ32wy5WJJVuOqSIw8r-19" edge="1">
          <mxGeometry width="50" height="50" relative="1" as="geometry">
            <mxPoint x="766" y="420" as="sourcePoint" />
            <mxPoint x="828" y="368" as="targetPoint" />
          </mxGeometry>
        </mxCell>
        <mxCell id="BoZ32wy5WJJVuOqSIw8r-26" value="가능처" style="ellipse;whiteSpace=wrap;html=1;fillColor=#f5f5f5;fontColor=#333333;strokeColor=#666666;strokeWidth=2;fontSize=18;fontStyle=1" parent="1" vertex="1">
          <mxGeometry x="825.5" y="460" width="120" height="80" as="geometry" />
        </mxCell>
        <mxCell id="BoZ32wy5WJJVuOqSIw8r-27" value="" style="endArrow=none;html=1;rounded=0;entryX=0;entryY=0;entryDx=0;entryDy=0;exitX=1;exitY=0.75;exitDx=0;exitDy=0;strokeWidth=2;" parent="1" source="BoZ32wy5WJJVuOqSIw8r-2" target="BoZ32wy5WJJVuOqSIw8r-26" edge="1">
          <mxGeometry width="50" height="50" relative="1" as="geometry">
            <mxPoint x="831" y="438" as="sourcePoint" />
            <mxPoint x="860" y="420" as="targetPoint" />
          </mxGeometry>
        </mxCell>
        <mxCell id="BoZ32wy5WJJVuOqSIw8r-28" value="" style="endArrow=none;dashed=1;html=1;rounded=0;exitX=0;exitY=0.5;exitDx=0;exitDy=0;strokeWidth=2;entryX=1;entryY=0.5;entryDx=0;entryDy=0;" parent="1" source="BoZ32wy5WJJVuOqSIw8r-38" target="BoZ32wy5WJJVuOqSIw8r-54" edge="1">
          <mxGeometry width="50" height="50" relative="1" as="geometry">
            <mxPoint x="665.5" y="465" as="sourcePoint" />
            <mxPoint x="700" y="600" as="targetPoint" />
          </mxGeometry>
        </mxCell>
        <mxCell id="BoZ32wy5WJJVuOqSIw8r-29" value="" style="endArrow=none;dashed=1;html=1;rounded=0;entryX=0.5;entryY=0;entryDx=0;entryDy=0;exitX=0.5;exitY=1;exitDx=0;exitDy=0;strokeWidth=2;" parent="1" source="BoZ32wy5WJJVuOqSIw8r-21" target="BoZ32wy5WJJVuOqSIw8r-55" edge="1">
          <mxGeometry width="50" height="50" relative="1" as="geometry">
            <mxPoint x="496" y="455" as="sourcePoint" />
            <mxPoint x="755.5" y="515" as="targetPoint" />
            <Array as="points" />
          </mxGeometry>
        </mxCell>
        <mxCell id="BoZ32wy5WJJVuOqSIw8r-37" value="생년월일" style="ellipse;whiteSpace=wrap;html=1;fillColor=#f5f5f5;fontColor=#333333;strokeColor=#666666;strokeWidth=2;fontSize=18;fontStyle=1" parent="1" vertex="1">
          <mxGeometry x="1080" y="705" width="120" height="80" as="geometry" />
        </mxCell>
        <mxCell id="BoZ32wy5WJJVuOqSIw8r-38" value="고객&lt;div&gt;아이디&lt;/div&gt;" style="ellipse;whiteSpace=wrap;html=1;fillColor=#f5f5f5;fontColor=#333333;strokeColor=#666666;strokeWidth=2;fontSize=18;fontStyle=1" parent="1" vertex="1">
          <mxGeometry x="720" y="680" width="120" height="80" as="geometry" />
        </mxCell>
        <mxCell id="BoZ32wy5WJJVuOqSIw8r-39" value="이름" style="ellipse;whiteSpace=wrap;html=1;fillColor=#f5f5f5;fontColor=#333333;strokeColor=#666666;strokeWidth=2;fontSize=18;fontStyle=1" parent="1" vertex="1">
          <mxGeometry x="835.5" y="790" width="120" height="80" as="geometry" />
        </mxCell>
        <mxCell id="BoZ32wy5WJJVuOqSIw8r-40" value="주소" style="ellipse;whiteSpace=wrap;html=1;fillColor=#f5f5f5;fontColor=#333333;strokeColor=#666666;strokeWidth=2;fontSize=18;fontStyle=1" parent="1" vertex="1">
          <mxGeometry x="1055.5" y="565" width="120" height="80" as="geometry" />
        </mxCell>
        <mxCell id="BoZ32wy5WJJVuOqSIw8r-41" value="전화번호" style="ellipse;whiteSpace=wrap;html=1;fillColor=#f5f5f5;fontColor=#333333;strokeColor=#666666;strokeWidth=2;fontSize=18;fontStyle=1" parent="1" vertex="1">
          <mxGeometry x="982.5" y="480" width="120" height="80" as="geometry" />
        </mxCell>
        <mxCell id="BoZ32wy5WJJVuOqSIw8r-42" value="성별" style="ellipse;whiteSpace=wrap;html=1;fillColor=#f5f5f5;fontColor=#333333;strokeColor=#666666;strokeWidth=2;fontSize=18;fontStyle=1" parent="1" vertex="1">
          <mxGeometry x="982.5" y="645" width="120" height="80" as="geometry" />
        </mxCell>
        <mxCell id="BoZ32wy5WJJVuOqSIw8r-43" value="가입날짜" style="ellipse;whiteSpace=wrap;html=1;fillColor=#f5f5f5;fontColor=#333333;strokeColor=#666666;strokeWidth=2;fontSize=18;fontStyle=1" parent="1" vertex="1">
          <mxGeometry x="955.5" y="735" width="120" height="80" as="geometry" />
        </mxCell>
        <mxCell id="BoZ32wy5WJJVuOqSIw8r-44" value="포인트" style="ellipse;whiteSpace=wrap;html=1;fillColor=#f5f5f5;fontColor=#333333;strokeColor=#666666;strokeWidth=2;fontSize=18;fontStyle=1" parent="1" vertex="1">
          <mxGeometry x="845.5" y="695" width="120" height="80" as="geometry" />
        </mxCell>
        <mxCell id="BoZ32wy5WJJVuOqSIw8r-45" value="" style="endArrow=none;html=1;rounded=0;entryX=0;entryY=1;entryDx=0;entryDy=0;exitX=1;exitY=0.25;exitDx=0;exitDy=0;strokeWidth=2;" parent="1" source="BoZ32wy5WJJVuOqSIw8r-3" target="BoZ32wy5WJJVuOqSIw8r-41" edge="1">
          <mxGeometry width="50" height="50" relative="1" as="geometry">
            <mxPoint x="805.5" y="393" as="sourcePoint" />
            <mxPoint x="945.5000000000273" y="555" as="targetPoint" />
            <Array as="points" />
          </mxGeometry>
        </mxCell>
        <mxCell id="BoZ32wy5WJJVuOqSIw8r-46" value="" style="endArrow=none;html=1;rounded=0;entryX=1;entryY=0.75;entryDx=0;entryDy=0;exitX=0;exitY=0.5;exitDx=0;exitDy=0;strokeWidth=2;" parent="1" source="BoZ32wy5WJJVuOqSIw8r-40" target="BoZ32wy5WJJVuOqSIw8r-3" edge="1">
          <mxGeometry width="50" height="50" relative="1" as="geometry">
            <mxPoint x="805.5" y="393" as="sourcePoint" />
            <mxPoint x="747.5" y="383" as="targetPoint" />
          </mxGeometry>
        </mxCell>
        <mxCell id="BoZ32wy5WJJVuOqSIw8r-47" value="" style="endArrow=none;html=1;rounded=0;entryX=0.75;entryY=1;entryDx=0;entryDy=0;exitX=0;exitY=0;exitDx=0;exitDy=0;strokeWidth=2;" parent="1" source="BoZ32wy5WJJVuOqSIw8r-37" target="BoZ32wy5WJJVuOqSIw8r-3" edge="1">
          <mxGeometry width="50" height="50" relative="1" as="geometry">
            <mxPoint x="1085.5" y="740" as="sourcePoint" />
            <mxPoint x="936.5" y="648" as="targetPoint" />
          </mxGeometry>
        </mxCell>
        <mxCell id="BoZ32wy5WJJVuOqSIw8r-48" value="" style="endArrow=none;html=1;rounded=0;entryX=1;entryY=1;entryDx=0;entryDy=0;exitX=0;exitY=0.5;exitDx=0;exitDy=0;strokeWidth=2;" parent="1" source="BoZ32wy5WJJVuOqSIw8r-42" target="BoZ32wy5WJJVuOqSIw8r-3" edge="1">
          <mxGeometry width="50" height="50" relative="1" as="geometry">
            <mxPoint x="895.5" y="695" as="sourcePoint" />
            <mxPoint x="903.5" y="665" as="targetPoint" />
          </mxGeometry>
        </mxCell>
        <mxCell id="BoZ32wy5WJJVuOqSIw8r-49" value="" style="endArrow=none;html=1;rounded=0;entryX=0.424;entryY=1;entryDx=0;entryDy=0;exitX=0.5;exitY=0;exitDx=0;exitDy=0;strokeWidth=2;entryPerimeter=0;" parent="1" source="BoZ32wy5WJJVuOqSIw8r-39" target="BoZ32wy5WJJVuOqSIw8r-3" edge="1">
          <mxGeometry width="50" height="50" relative="1" as="geometry">
            <mxPoint x="871" y="785" as="sourcePoint" />
            <mxPoint x="903.5" y="665" as="targetPoint" />
          </mxGeometry>
        </mxCell>
        <mxCell id="BoZ32wy5WJJVuOqSIw8r-50" value="" style="endArrow=none;html=1;rounded=0;exitX=0.5;exitY=0;exitDx=0;exitDy=0;strokeWidth=2;entryX=0.25;entryY=1;entryDx=0;entryDy=0;" parent="1" source="BoZ32wy5WJJVuOqSIw8r-38" target="BoZ32wy5WJJVuOqSIw8r-3" edge="1">
          <mxGeometry width="50" height="50" relative="1" as="geometry">
            <mxPoint x="775.5" y="715" as="sourcePoint" />
            <mxPoint x="805.5" y="675" as="targetPoint" />
          </mxGeometry>
        </mxCell>
        <mxCell id="BoZ32wy5WJJVuOqSIw8r-51" value="" style="endArrow=none;html=1;rounded=0;entryX=0.656;entryY=1.014;entryDx=0;entryDy=0;exitX=0.5;exitY=0;exitDx=0;exitDy=0;strokeWidth=2;entryPerimeter=0;" parent="1" source="BoZ32wy5WJJVuOqSIw8r-43" target="BoZ32wy5WJJVuOqSIw8r-3" edge="1">
          <mxGeometry width="50" height="50" relative="1" as="geometry">
            <mxPoint x="825.5" y="775" as="sourcePoint" />
            <mxPoint x="838.5" y="665" as="targetPoint" />
          </mxGeometry>
        </mxCell>
        <mxCell id="BoZ32wy5WJJVuOqSIw8r-52" value="" style="endArrow=none;html=1;rounded=0;entryX=0.5;entryY=1;entryDx=0;entryDy=0;strokeWidth=2;" parent="1" source="BoZ32wy5WJJVuOqSIw8r-44" target="BoZ32wy5WJJVuOqSIw8r-3" edge="1">
          <mxGeometry width="50" height="50" relative="1" as="geometry">
            <mxPoint x="893.5" y="837" as="sourcePoint" />
            <mxPoint x="871.5" y="665" as="targetPoint" />
          </mxGeometry>
        </mxCell>
        <mxCell id="BoZ32wy5WJJVuOqSIw8r-53" value="쿠폰코드" style="ellipse;whiteSpace=wrap;html=1;fillColor=#f5f5f5;fontColor=#333333;strokeColor=#666666;strokeWidth=2;fontSize=18;fontStyle=1" parent="1" vertex="1">
          <mxGeometry x="377.75" y="705" width="120" height="80" as="geometry" />
        </mxCell>
        <mxCell id="BoZ32wy5WJJVuOqSIw8r-54" value="고객아이디" style="ellipse;whiteSpace=wrap;html=1;fillColor=#f5f5f5;fontColor=#333333;strokeColor=#666666;strokeWidth=2;fontSize=18;fontStyle=1" parent="1" vertex="1">
          <mxGeometry x="510" y="645" width="120" height="80" as="geometry" />
        </mxCell>
        <mxCell id="BoZ32wy5WJJVuOqSIw8r-55" value="쿠폰이름" style="ellipse;whiteSpace=wrap;html=1;fillColor=#f5f5f5;fontColor=#333333;strokeColor=#666666;strokeWidth=2;fontSize=18;fontStyle=1" parent="1" vertex="1">
          <mxGeometry x="497.75" y="555" width="120" height="80" as="geometry" />
        </mxCell>
        <mxCell id="BoZ32wy5WJJVuOqSIw8r-56" value="사용처" style="ellipse;whiteSpace=wrap;html=1;fillColor=#f5f5f5;fontColor=#333333;strokeColor=#666666;strokeWidth=2;fontSize=18;fontStyle=1" parent="1" vertex="1">
          <mxGeometry x="250" y="705" width="120" height="80" as="geometry" />
        </mxCell>
        <mxCell id="BoZ32wy5WJJVuOqSIw8r-57" value="만료일" style="ellipse;whiteSpace=wrap;html=1;fillColor=#f5f5f5;fontColor=#333333;strokeColor=#666666;strokeWidth=2;fontSize=18;fontStyle=1" parent="1" vertex="1">
          <mxGeometry x="200" y="620" width="120" height="80" as="geometry" />
        </mxCell>
        <mxCell id="BoZ32wy5WJJVuOqSIw8r-58" value="사용날짜" style="ellipse;whiteSpace=wrap;html=1;fillColor=#f5f5f5;fontColor=#333333;strokeColor=#666666;strokeWidth=2;fontSize=18;fontStyle=1" parent="1" vertex="1">
          <mxGeometry x="377.75" y="530" width="120" height="80" as="geometry" />
        </mxCell>
        <mxCell id="BoZ32wy5WJJVuOqSIw8r-59" value="발급일" style="ellipse;whiteSpace=wrap;html=1;fillColor=#f5f5f5;fontColor=#333333;strokeColor=#666666;strokeWidth=2;fontSize=18;fontStyle=1" parent="1" vertex="1">
          <mxGeometry x="250" y="535" width="120" height="80" as="geometry" />
        </mxCell>
        <mxCell id="BoZ32wy5WJJVuOqSIw8r-60" value="" style="endArrow=none;html=1;rounded=0;entryX=0;entryY=0.5;entryDx=0;entryDy=0;exitX=1;exitY=0.75;exitDx=0;exitDy=0;strokeWidth=2;" parent="1" source="BoZ32wy5WJJVuOqSIw8r-6" target="BoZ32wy5WJJVuOqSIw8r-54" edge="1">
          <mxGeometry width="50" height="50" relative="1" as="geometry">
            <mxPoint x="700" y="433" as="sourcePoint" />
            <mxPoint x="642" y="423" as="targetPoint" />
          </mxGeometry>
        </mxCell>
        <mxCell id="BoZ32wy5WJJVuOqSIw8r-61" value="" style="endArrow=none;html=1;rounded=0;entryX=1;entryY=1;entryDx=0;entryDy=0;exitX=0.25;exitY=0;exitDx=0;exitDy=0;strokeWidth=2;" parent="1" source="BoZ32wy5WJJVuOqSIw8r-6" target="BoZ32wy5WJJVuOqSIw8r-59" edge="1">
          <mxGeometry width="50" height="50" relative="1" as="geometry">
            <mxPoint x="382" y="635" as="sourcePoint" />
            <mxPoint x="390" y="595" as="targetPoint" />
          </mxGeometry>
        </mxCell>
        <mxCell id="BoZ32wy5WJJVuOqSIw8r-62" value="" style="endArrow=none;html=1;rounded=0;entryX=0.5;entryY=1;entryDx=0;entryDy=0;exitX=0.75;exitY=0;exitDx=0;exitDy=0;strokeWidth=2;" parent="1" source="BoZ32wy5WJJVuOqSIw8r-6" target="BoZ32wy5WJJVuOqSIw8r-58" edge="1">
          <mxGeometry width="50" height="50" relative="1" as="geometry">
            <mxPoint x="415" y="635" as="sourcePoint" />
            <mxPoint x="490" y="535" as="targetPoint" />
          </mxGeometry>
        </mxCell>
        <mxCell id="BoZ32wy5WJJVuOqSIw8r-63" value="" style="endArrow=none;html=1;rounded=0;entryX=1;entryY=0.5;entryDx=0;entryDy=0;strokeWidth=2;exitX=0;exitY=0.5;exitDx=0;exitDy=0;" parent="1" source="BoZ32wy5WJJVuOqSIw8r-6" target="BoZ32wy5WJJVuOqSIw8r-57" edge="1">
          <mxGeometry width="50" height="50" relative="1" as="geometry">
            <mxPoint x="339" y="625" as="sourcePoint" />
            <mxPoint x="488" y="613" as="targetPoint" />
          </mxGeometry>
        </mxCell>
        <mxCell id="BoZ32wy5WJJVuOqSIw8r-64" value="" style="endArrow=none;html=1;rounded=0;entryX=0;entryY=1;entryDx=0;entryDy=0;exitX=1;exitY=0.25;exitDx=0;exitDy=0;strokeWidth=2;" parent="1" source="BoZ32wy5WJJVuOqSIw8r-6" target="BoZ32wy5WJJVuOqSIw8r-55" edge="1">
          <mxGeometry width="50" height="50" relative="1" as="geometry">
            <mxPoint x="349" y="635" as="sourcePoint" />
            <mxPoint x="302" y="533" as="targetPoint" />
          </mxGeometry>
        </mxCell>
        <mxCell id="BoZ32wy5WJJVuOqSIw8r-65" value="" style="endArrow=none;html=1;rounded=0;exitX=0.25;exitY=1;exitDx=0;exitDy=0;strokeWidth=2;" parent="1" source="BoZ32wy5WJJVuOqSIw8r-6" target="BoZ32wy5WJJVuOqSIw8r-56" edge="1">
          <mxGeometry width="50" height="50" relative="1" as="geometry">
            <mxPoint x="349" y="653" as="sourcePoint" />
            <mxPoint x="302" y="623" as="targetPoint" />
          </mxGeometry>
        </mxCell>
        <mxCell id="BoZ32wy5WJJVuOqSIw8r-66" value="" style="endArrow=none;html=1;rounded=0;entryX=0.5;entryY=0;entryDx=0;entryDy=0;exitX=0.75;exitY=1;exitDx=0;exitDy=0;strokeWidth=2;" parent="1" source="BoZ32wy5WJJVuOqSIw8r-6" target="BoZ32wy5WJJVuOqSIw8r-53" edge="1">
          <mxGeometry width="50" height="50" relative="1" as="geometry">
            <mxPoint x="349" y="670" as="sourcePoint" />
            <mxPoint x="320" y="685" as="targetPoint" />
          </mxGeometry>
        </mxCell>
        <mxCell id="BoZ32wy5WJJVuOqSIw8r-81" value="고객&lt;div&gt;아이디&lt;/div&gt;" style="ellipse;whiteSpace=wrap;html=1;fillColor=#f5f5f5;fontColor=#333333;strokeColor=#666666;strokeWidth=2;fontSize=18;fontStyle=1" parent="1" vertex="1">
          <mxGeometry x="617.75" y="860" width="120" height="80" as="geometry" />
        </mxCell>
        <mxCell id="BoZ32wy5WJJVuOqSIw8r-82" value="입실일" style="ellipse;whiteSpace=wrap;html=1;fillColor=#f5f5f5;fontColor=#333333;strokeColor=#666666;strokeWidth=2;fontSize=18;fontStyle=1" parent="1" vertex="1">
          <mxGeometry x="490" y="870" width="120" height="80" as="geometry" />
        </mxCell>
        <mxCell id="BoZ32wy5WJJVuOqSIw8r-83" value="숙소아이디" style="ellipse;whiteSpace=wrap;html=1;fillColor=#f5f5f5;fontColor=#333333;strokeColor=#666666;strokeWidth=2;fontSize=18;fontStyle=1" parent="1" vertex="1">
          <mxGeometry x="380" y="930" width="120" height="80" as="geometry" />
        </mxCell>
        <mxCell id="BoZ32wy5WJJVuOqSIw8r-84" value="예약날짜&lt;span style=&quot;color: rgba(0, 0, 0, 0); font-family: monospace; font-size: 0px; font-weight: 400; text-align: start; text-wrap-mode: nowrap;&quot;&gt;%3CmxGraphModel%3E%3Croot%3E%3CmxCell%20id%3D%220%22%2F%3E%3CmxCell%20id%3D%221%22%20parent%3D%220%22%2F%3E%3CmxCell%20id%3D%222%22%20value%3D%22%ED%87%B4%EC%8B%A4%EC%9D%BC%22%20style%3D%22ellipse%3BwhiteSpace%3Dwrap%3Bhtml%3D1%3BfillColor%3D%23f5f5f5%3BfontColor%3D%23333333%3BstrokeColor%3D%23666666%3BstrokeWidth%3D2%3BfontSize%3D18%3BfontStyle%3D1%22%20vertex%3D%221%22%20parent%3D%221%22%3E%3CmxGeometry%20x%3D%22210%22%20y%3D%22840%22%20width%3D%22120%22%20height%3D%2280%22%20as%3D%22geometry%22%2F%3E%3C%2FmxCell%3E%3C%2Froot%3E%3C%2FmxGraphModel%3E&lt;/span&gt;" style="ellipse;whiteSpace=wrap;html=1;fillColor=#f5f5f5;fontColor=#333333;strokeColor=#666666;strokeWidth=2;fontSize=18;fontStyle=1" parent="1" vertex="1">
          <mxGeometry x="360" y="1030" width="120" height="80" as="geometry" />
        </mxCell>
        <mxCell id="BoZ32wy5WJJVuOqSIw8r-85" value="결제금액" style="ellipse;whiteSpace=wrap;html=1;fillColor=#f5f5f5;fontColor=#333333;strokeColor=#666666;strokeWidth=2;fontSize=18;fontStyle=1" parent="1" vertex="1">
          <mxGeometry x="510" y="1060" width="120" height="80" as="geometry" />
        </mxCell>
        <mxCell id="BoZ32wy5WJJVuOqSIw8r-86" value="결제수단" style="ellipse;whiteSpace=wrap;html=1;fillColor=#f5f5f5;fontColor=#333333;strokeColor=#666666;strokeWidth=2;fontSize=18;fontStyle=1" parent="1" vertex="1">
          <mxGeometry x="810" y="1040" width="120" height="80" as="geometry" />
        </mxCell>
        <mxCell id="BoZ32wy5WJJVuOqSIw8r-87" value="평점" style="ellipse;whiteSpace=wrap;html=1;fillColor=#f5f5f5;fontColor=#333333;strokeColor=#666666;strokeWidth=2;fontSize=18;fontStyle=1" parent="1" vertex="1">
          <mxGeometry x="671" y="1030" width="120" height="80" as="geometry" />
        </mxCell>
        <mxCell id="BoZ32wy5WJJVuOqSIw8r-88" value="예약번호" style="ellipse;whiteSpace=wrap;html=1;fillColor=#f5f5f5;fontColor=#333333;strokeColor=#666666;strokeWidth=2;fontSize=18;fontStyle=1" parent="1" vertex="1">
          <mxGeometry x="690" y="940" width="120" height="80" as="geometry" />
        </mxCell>
        <mxCell id="BoZ32wy5WJJVuOqSIw8r-89" value="수수료" style="ellipse;whiteSpace=wrap;html=1;fillColor=#f5f5f5;fontColor=#333333;strokeColor=#666666;strokeWidth=2;fontSize=18;fontStyle=1" parent="1" vertex="1">
          <mxGeometry x="610" y="1110" width="120" height="80" as="geometry" />
        </mxCell>
        <mxCell id="BoZ32wy5WJJVuOqSIw8r-90" value="퇴실일" style="ellipse;whiteSpace=wrap;html=1;fillColor=#f5f5f5;fontColor=#333333;strokeColor=#666666;strokeWidth=2;fontSize=18;fontStyle=1" parent="1" vertex="1">
          <mxGeometry x="260" y="980" width="120" height="80" as="geometry" />
        </mxCell>
        <mxCell id="BoZ32wy5WJJVuOqSIw8r-91" value="수수료" style="ellipse;whiteSpace=wrap;html=1;fillColor=#f5f5f5;fontColor=#333333;strokeColor=#666666;strokeWidth=2;fontSize=18;fontStyle=1" parent="1" vertex="1">
          <mxGeometry x="395.5" y="1120" width="120" height="80" as="geometry" />
        </mxCell>
        <mxCell id="BoZ32wy5WJJVuOqSIw8r-93" value="" style="endArrow=none;html=1;rounded=0;exitX=0.75;exitY=0;exitDx=0;exitDy=0;strokeWidth=2;entryX=0.5;entryY=1;entryDx=0;entryDy=0;" parent="1" source="BoZ32wy5WJJVuOqSIw8r-7" target="BoZ32wy5WJJVuOqSIw8r-81" edge="1">
          <mxGeometry width="50" height="50" relative="1" as="geometry">
            <mxPoint x="500" y="980" as="sourcePoint" />
            <mxPoint x="553" y="920" as="targetPoint" />
          </mxGeometry>
        </mxCell>
        <mxCell id="BoZ32wy5WJJVuOqSIw8r-94" value="" style="endArrow=none;html=1;rounded=0;exitX=0.25;exitY=0;exitDx=0;exitDy=0;strokeWidth=2;entryX=0.5;entryY=1;entryDx=0;entryDy=0;" parent="1" source="BoZ32wy5WJJVuOqSIw8r-7" target="BoZ32wy5WJJVuOqSIw8r-82" edge="1">
          <mxGeometry width="50" height="50" relative="1" as="geometry">
            <mxPoint x="335" y="1078" as="sourcePoint" />
            <mxPoint x="299" y="1055" as="targetPoint" />
          </mxGeometry>
        </mxCell>
        <mxCell id="BoZ32wy5WJJVuOqSIw8r-95" value="" style="endArrow=none;html=1;rounded=0;exitX=0;exitY=0.25;exitDx=0;exitDy=0;strokeWidth=2;entryX=1;entryY=0.5;entryDx=0;entryDy=0;" parent="1" source="BoZ32wy5WJJVuOqSIw8r-7" target="BoZ32wy5WJJVuOqSIw8r-83" edge="1">
          <mxGeometry width="50" height="50" relative="1" as="geometry">
            <mxPoint x="335" y="1095" as="sourcePoint" />
            <mxPoint x="281" y="1112" as="targetPoint" />
          </mxGeometry>
        </mxCell>
        <mxCell id="BoZ32wy5WJJVuOqSIw8r-96" value="" style="endArrow=none;html=1;rounded=0;exitX=0;exitY=0.75;exitDx=0;exitDy=0;strokeWidth=2;entryX=1;entryY=0;entryDx=0;entryDy=0;" parent="1" source="BoZ32wy5WJJVuOqSIw8r-7" target="BoZ32wy5WJJVuOqSIw8r-84" edge="1">
          <mxGeometry width="50" height="50" relative="1" as="geometry">
            <mxPoint x="335" y="1130" as="sourcePoint" />
            <mxPoint x="270" y="1190" as="targetPoint" />
          </mxGeometry>
        </mxCell>
        <mxCell id="BoZ32wy5WJJVuOqSIw8r-97" value="" style="endArrow=none;html=1;rounded=0;strokeWidth=2;entryX=0.671;entryY=0.038;entryDx=0;entryDy=0;entryPerimeter=0;exitX=0;exitY=1;exitDx=0;exitDy=0;" parent="1" source="BoZ32wy5WJJVuOqSIw8r-7" target="BoZ32wy5WJJVuOqSIw8r-91" edge="1">
          <mxGeometry width="50" height="50" relative="1" as="geometry">
            <mxPoint x="530" y="1050" as="sourcePoint" />
            <mxPoint x="270" y="1190" as="targetPoint" />
          </mxGeometry>
        </mxCell>
        <mxCell id="BoZ32wy5WJJVuOqSIw8r-98" value="" style="endArrow=none;html=1;rounded=0;exitX=0.5;exitY=1;exitDx=0;exitDy=0;strokeWidth=2;entryX=0.5;entryY=0;entryDx=0;entryDy=0;" parent="1" source="BoZ32wy5WJJVuOqSIw8r-7" target="BoZ32wy5WJJVuOqSIw8r-85" edge="1">
          <mxGeometry width="50" height="50" relative="1" as="geometry">
            <mxPoint x="357" y="1133" as="sourcePoint" />
            <mxPoint x="295" y="1283" as="targetPoint" />
          </mxGeometry>
        </mxCell>
        <mxCell id="BoZ32wy5WJJVuOqSIw8r-99" value="" style="endArrow=none;html=1;rounded=0;exitX=1;exitY=0.5;exitDx=0;exitDy=0;strokeWidth=2;entryX=0;entryY=0;entryDx=0;entryDy=0;" parent="1" source="BoZ32wy5WJJVuOqSIw8r-7" target="BoZ32wy5WJJVuOqSIw8r-86" edge="1">
          <mxGeometry width="50" height="50" relative="1" as="geometry">
            <mxPoint x="400" y="1130" as="sourcePoint" />
            <mxPoint x="390" y="1230" as="targetPoint" />
          </mxGeometry>
        </mxCell>
        <mxCell id="BoZ32wy5WJJVuOqSIw8r-100" value="" style="endArrow=none;html=1;rounded=0;exitX=0;exitY=0.5;exitDx=0;exitDy=0;strokeWidth=2;entryX=1;entryY=0.5;entryDx=0;entryDy=0;" parent="1" source="BoZ32wy5WJJVuOqSIw8r-7" target="BoZ32wy5WJJVuOqSIw8r-90" edge="1">
          <mxGeometry width="50" height="50" relative="1" as="geometry">
            <mxPoint x="466" y="1095" as="sourcePoint" />
            <mxPoint x="478" y="1142" as="targetPoint" />
          </mxGeometry>
        </mxCell>
        <mxCell id="BoZ32wy5WJJVuOqSIw8r-101" value="" style="endArrow=none;html=1;rounded=0;exitX=1;exitY=0.75;exitDx=0;exitDy=0;strokeWidth=2;entryX=0;entryY=0;entryDx=0;entryDy=0;" parent="1" source="BoZ32wy5WJJVuOqSIw8r-7" target="BoZ32wy5WJJVuOqSIw8r-87" edge="1">
          <mxGeometry width="50" height="50" relative="1" as="geometry">
            <mxPoint x="433" y="1130" as="sourcePoint" />
            <mxPoint x="463" y="1300" as="targetPoint" />
          </mxGeometry>
        </mxCell>
        <mxCell id="BoZ32wy5WJJVuOqSIw8r-102" value="" style="endArrow=none;html=1;rounded=0;exitX=1;exitY=0.25;exitDx=0;exitDy=0;strokeWidth=2;entryX=0;entryY=0.5;entryDx=0;entryDy=0;" parent="1" source="BoZ32wy5WJJVuOqSIw8r-7" target="BoZ32wy5WJJVuOqSIw8r-88" edge="1">
          <mxGeometry width="50" height="50" relative="1" as="geometry">
            <mxPoint x="451" y="1132" as="sourcePoint" />
            <mxPoint x="478" y="1232" as="targetPoint" />
          </mxGeometry>
        </mxCell>
        <mxCell id="BoZ32wy5WJJVuOqSIw8r-103" value="" style="endArrow=none;html=1;rounded=0;exitX=0.859;exitY=1;exitDx=0;exitDy=0;strokeWidth=2;entryX=0.5;entryY=0;entryDx=0;entryDy=0;exitPerimeter=0;" parent="1" source="BoZ32wy5WJJVuOqSIw8r-7" target="BoZ32wy5WJJVuOqSIw8r-89" edge="1">
          <mxGeometry width="50" height="50" relative="1" as="geometry">
            <mxPoint x="455" y="1130" as="sourcePoint" />
            <mxPoint x="478" y="1232" as="targetPoint" />
          </mxGeometry>
        </mxCell>
        <mxCell id="BoZ32wy5WJJVuOqSIw8r-104" value="방갯수" style="ellipse;whiteSpace=wrap;html=1;fillColor=#f5f5f5;fontColor=#333333;strokeColor=#666666;strokeWidth=2;fontSize=18;fontStyle=1" parent="1" vertex="1">
          <mxGeometry x="100" y="967.5" width="120" height="80" as="geometry" />
        </mxCell>
        <mxCell id="BoZ32wy5WJJVuOqSIw8r-105" value="취사여부" style="ellipse;whiteSpace=wrap;html=1;fillColor=#f5f5f5;fontColor=#333333;strokeColor=#666666;strokeWidth=2;fontSize=18;fontStyle=1" parent="1" vertex="1">
          <mxGeometry x="-90" y="872.5" width="120" height="80" as="geometry" />
        </mxCell>
        <mxCell id="BoZ32wy5WJJVuOqSIw8r-106" value="주소" style="ellipse;whiteSpace=wrap;html=1;fillColor=#f5f5f5;fontColor=#333333;strokeColor=#666666;strokeWidth=2;fontSize=18;fontStyle=1" parent="1" vertex="1">
          <mxGeometry x="-190" y="1067.5" width="120" height="80" as="geometry" />
        </mxCell>
        <mxCell id="BoZ32wy5WJJVuOqSIw8r-107" value="타입" style="ellipse;whiteSpace=wrap;html=1;fillColor=#f5f5f5;fontColor=#333333;strokeColor=#666666;strokeWidth=2;fontSize=18;fontStyle=1" parent="1" vertex="1">
          <mxGeometry x="-320" y="1032.5" width="120" height="80" as="geometry" />
        </mxCell>
        <mxCell id="BoZ32wy5WJJVuOqSIw8r-108" value="옵션여부" style="ellipse;whiteSpace=wrap;html=1;fillColor=#f5f5f5;fontColor=#333333;strokeColor=#666666;strokeWidth=2;fontSize=18;fontStyle=1" parent="1" vertex="1">
          <mxGeometry x="-200" y="972.5" width="120" height="80" as="geometry" />
        </mxCell>
        <mxCell id="BoZ32wy5WJJVuOqSIw8r-109" value="숙소아이디" style="ellipse;whiteSpace=wrap;html=1;fillColor=#f5f5f5;fontColor=#333333;strokeColor=#666666;strokeWidth=2;fontSize=18;fontStyle=1" parent="1" vertex="1">
          <mxGeometry x="-30" y="802.5" width="120" height="80" as="geometry" />
        </mxCell>
        <mxCell id="BoZ32wy5WJJVuOqSIw8r-110" value="반려견&lt;div&gt;여부&lt;/div&gt;" style="ellipse;whiteSpace=wrap;html=1;fillColor=#f5f5f5;fontColor=#333333;strokeColor=#666666;strokeWidth=2;fontSize=18;fontStyle=1" parent="1" vertex="1">
          <mxGeometry x="20" y="1147.5" width="120" height="80" as="geometry" />
        </mxCell>
        <mxCell id="BoZ32wy5WJJVuOqSIw8r-111" value="주인아이디" style="ellipse;whiteSpace=wrap;html=1;fillColor=#f5f5f5;fontColor=#333333;strokeColor=#666666;strokeWidth=2;fontSize=18;fontStyle=1" parent="1" vertex="1">
          <mxGeometry x="-210" y="792.5" width="120" height="80" as="geometry" />
        </mxCell>
        <mxCell id="BoZ32wy5WJJVuOqSIw8r-112" value="주차여부" style="ellipse;whiteSpace=wrap;html=1;fillColor=#f5f5f5;fontColor=#333333;strokeColor=#666666;strokeWidth=2;fontSize=18;fontStyle=1" parent="1" vertex="1">
          <mxGeometry x="-60" y="1067.5" width="120" height="80" as="geometry" />
        </mxCell>
        <mxCell id="BoZ32wy5WJJVuOqSIw8r-113" value="침대&lt;div&gt;사이즈&lt;/div&gt;" style="ellipse;whiteSpace=wrap;html=1;fillColor=#f5f5f5;fontColor=#333333;strokeColor=#666666;strokeWidth=2;fontSize=18;fontStyle=1" parent="1" vertex="1">
          <mxGeometry x="40" y="882.5" width="120" height="80" as="geometry" />
        </mxCell>
        <mxCell id="BoZ32wy5WJJVuOqSIw8r-114" value="수용인원" style="ellipse;whiteSpace=wrap;html=1;fillColor=#f5f5f5;fontColor=#333333;strokeColor=#666666;strokeWidth=2;fontSize=18;fontStyle=1" parent="1" vertex="1">
          <mxGeometry x="-250" y="882.5" width="120" height="80" as="geometry" />
        </mxCell>
        <mxCell id="BoZ32wy5WJJVuOqSIw8r-115" value="예약번호" style="ellipse;whiteSpace=wrap;html=1;fillColor=#f5f5f5;fontColor=#333333;strokeColor=#666666;strokeWidth=2;fontSize=18;fontStyle=1" parent="1" vertex="1">
          <mxGeometry x="70" y="1057.5" width="120" height="80" as="geometry" />
        </mxCell>
        <mxCell id="BoZ32wy5WJJVuOqSIw8r-116" value="" style="endArrow=none;html=1;rounded=0;exitX=0;exitY=0.5;exitDx=0;exitDy=0;strokeWidth=2;entryX=1;entryY=0.5;entryDx=0;entryDy=0;" parent="1" source="BoZ32wy5WJJVuOqSIw8r-104" target="BoZ32wy5WJJVuOqSIw8r-5" edge="1">
          <mxGeometry width="50" height="50" relative="1" as="geometry">
            <mxPoint x="-240" y="581.5" as="sourcePoint" />
            <mxPoint x="-295" y="735.5" as="targetPoint" />
          </mxGeometry>
        </mxCell>
        <mxCell id="BoZ32wy5WJJVuOqSIw8r-117" value="" style="endArrow=none;html=1;rounded=0;exitX=0.5;exitY=1;exitDx=0;exitDy=0;strokeWidth=2;entryX=0.25;entryY=0;entryDx=0;entryDy=0;" parent="1" source="BoZ32wy5WJJVuOqSIw8r-105" target="BoZ32wy5WJJVuOqSIw8r-5" edge="1">
          <mxGeometry width="50" height="50" relative="1" as="geometry">
            <mxPoint x="-458" y="840.5" as="sourcePoint" />
            <mxPoint x="-416" y="855.5" as="targetPoint" />
          </mxGeometry>
        </mxCell>
        <mxCell id="BoZ32wy5WJJVuOqSIw8r-118" value="" style="endArrow=none;html=1;rounded=0;exitX=0;exitY=0;exitDx=0;exitDy=0;strokeWidth=2;entryX=0.5;entryY=1;entryDx=0;entryDy=0;" parent="1" source="BoZ32wy5WJJVuOqSIw8r-5" target="BoZ32wy5WJJVuOqSIw8r-111" edge="1">
          <mxGeometry width="50" height="50" relative="1" as="geometry">
            <mxPoint x="-440" y="902.5" as="sourcePoint" />
            <mxPoint x="-517.5735931288073" y="954.2157287525379" as="targetPoint" />
          </mxGeometry>
        </mxCell>
        <mxCell id="BoZ32wy5WJJVuOqSIw8r-119" value="" style="endArrow=none;html=1;rounded=0;exitX=0.25;exitY=1;exitDx=0;exitDy=0;strokeWidth=2;entryX=1;entryY=0;entryDx=0;entryDy=0;" parent="1" source="BoZ32wy5WJJVuOqSIw8r-5" target="BoZ32wy5WJJVuOqSIw8r-106" edge="1">
          <mxGeometry width="50" height="50" relative="1" as="geometry">
            <mxPoint x="-416" y="907.5" as="sourcePoint" />
            <mxPoint x="-485" y="958.5" as="targetPoint" />
          </mxGeometry>
        </mxCell>
        <mxCell id="BoZ32wy5WJJVuOqSIw8r-120" value="" style="endArrow=none;html=1;rounded=0;strokeWidth=2;entryX=1;entryY=0.5;entryDx=0;entryDy=0;exitX=0;exitY=1;exitDx=0;exitDy=0;" parent="1" source="BoZ32wy5WJJVuOqSIw8r-5" target="BoZ32wy5WJJVuOqSIw8r-107" edge="1">
          <mxGeometry width="50" height="50" relative="1" as="geometry">
            <mxPoint x="-410" y="894.5" as="sourcePoint" />
            <mxPoint x="-497.57359312880726" y="1044.2157287525379" as="targetPoint" />
          </mxGeometry>
        </mxCell>
        <mxCell id="BoZ32wy5WJJVuOqSIw8r-121" value="" style="endArrow=none;html=1;rounded=0;exitX=0;exitY=0.5;exitDx=0;exitDy=0;strokeWidth=2;entryX=1;entryY=0.5;entryDx=0;entryDy=0;" parent="1" source="BoZ32wy5WJJVuOqSIw8r-5" target="BoZ32wy5WJJVuOqSIw8r-108" edge="1">
          <mxGeometry width="50" height="50" relative="1" as="geometry">
            <mxPoint x="-384" y="907.5" as="sourcePoint" />
            <mxPoint x="-420" y="1002.5" as="targetPoint" />
          </mxGeometry>
        </mxCell>
        <mxCell id="BoZ32wy5WJJVuOqSIw8r-122" value="" style="endArrow=none;html=1;rounded=0;strokeWidth=2;entryX=0.5;entryY=1;entryDx=0;entryDy=0;exitX=0.75;exitY=0;exitDx=0;exitDy=0;" parent="1" source="BoZ32wy5WJJVuOqSIw8r-5" target="BoZ32wy5WJJVuOqSIw8r-109" edge="1">
          <mxGeometry width="50" height="50" relative="1" as="geometry">
            <mxPoint x="-370" y="902.5" as="sourcePoint" />
            <mxPoint x="-410" y="1012.5" as="targetPoint" />
          </mxGeometry>
        </mxCell>
        <mxCell id="BoZ32wy5WJJVuOqSIw8r-123" value="" style="endArrow=none;html=1;rounded=0;strokeWidth=2;entryX=0.5;entryY=0;entryDx=0;entryDy=0;exitX=0.75;exitY=1;exitDx=0;exitDy=0;" parent="1" source="BoZ32wy5WJJVuOqSIw8r-5" target="BoZ32wy5WJJVuOqSIw8r-110" edge="1">
          <mxGeometry width="50" height="50" relative="1" as="geometry">
            <mxPoint x="16" y="1042.5" as="sourcePoint" />
            <mxPoint x="-302" y="934.5" as="targetPoint" />
          </mxGeometry>
        </mxCell>
        <mxCell id="BoZ32wy5WJJVuOqSIw8r-124" value="" style="endArrow=none;html=1;rounded=0;strokeWidth=2;entryX=0.5;entryY=0;entryDx=0;entryDy=0;exitX=0.5;exitY=1;exitDx=0;exitDy=0;" parent="1" source="BoZ32wy5WJJVuOqSIw8r-5" target="BoZ32wy5WJJVuOqSIw8r-112" edge="1">
          <mxGeometry width="50" height="50" relative="1" as="geometry">
            <mxPoint x="-351" y="907.5" as="sourcePoint" />
            <mxPoint x="-322" y="1024.5" as="targetPoint" />
          </mxGeometry>
        </mxCell>
        <mxCell id="BoZ32wy5WJJVuOqSIw8r-125" value="" style="endArrow=none;html=1;rounded=0;strokeWidth=2;entryX=1;entryY=1;entryDx=0;entryDy=0;exitX=0;exitY=0.25;exitDx=0;exitDy=0;" parent="1" source="BoZ32wy5WJJVuOqSIw8r-5" target="BoZ32wy5WJJVuOqSIw8r-114" edge="1">
          <mxGeometry width="50" height="50" relative="1" as="geometry">
            <mxPoint x="-326" y="905.5" as="sourcePoint" />
            <mxPoint x="-345" y="1092.5" as="targetPoint" />
          </mxGeometry>
        </mxCell>
        <mxCell id="BoZ32wy5WJJVuOqSIw8r-126" value="" style="endArrow=none;html=1;rounded=0;strokeWidth=2;entryX=0;entryY=0;entryDx=0;entryDy=0;exitX=1;exitY=1;exitDx=0;exitDy=0;" parent="1" source="BoZ32wy5WJJVuOqSIw8r-5" target="BoZ32wy5WJJVuOqSIw8r-115" edge="1">
          <mxGeometry width="50" height="50" relative="1" as="geometry">
            <mxPoint x="-285" y="907.5" as="sourcePoint" />
            <mxPoint x="-220" y="1092.5" as="targetPoint" />
          </mxGeometry>
        </mxCell>
        <mxCell id="BoZ32wy5WJJVuOqSIw8r-127" value="" style="endArrow=none;html=1;rounded=0;strokeWidth=2;exitX=1;exitY=0;exitDx=0;exitDy=0;" parent="1" source="BoZ32wy5WJJVuOqSIw8r-5" target="BoZ32wy5WJJVuOqSIw8r-113" edge="1">
          <mxGeometry width="50" height="50" relative="1" as="geometry">
            <mxPoint x="-325" y="906.5" as="sourcePoint" />
            <mxPoint x="-280" y="1172.5" as="targetPoint" />
          </mxGeometry>
        </mxCell>
        <mxCell id="BoZ32wy5WJJVuOqSIw8r-128" value="은행" style="ellipse;whiteSpace=wrap;html=1;fillColor=#f5f5f5;fontColor=#333333;strokeColor=#666666;strokeWidth=2;fontSize=18;fontStyle=1" parent="1" vertex="1">
          <mxGeometry x="-193.5" y="340" width="120" height="80" as="geometry" />
        </mxCell>
        <mxCell id="BoZ32wy5WJJVuOqSIw8r-129" value="이름" style="ellipse;whiteSpace=wrap;html=1;fillColor=#f5f5f5;fontColor=#333333;strokeColor=#666666;strokeWidth=2;fontSize=18;fontStyle=1" parent="1" vertex="1">
          <mxGeometry x="-260" y="520" width="120" height="80" as="geometry" />
        </mxCell>
        <mxCell id="BoZ32wy5WJJVuOqSIw8r-130" value="생년월일" style="ellipse;whiteSpace=wrap;html=1;fillColor=#f5f5f5;fontColor=#333333;strokeColor=#666666;strokeWidth=2;fontSize=18;fontStyle=1" parent="1" vertex="1">
          <mxGeometry x="-93.5" y="394" width="120" height="80" as="geometry" />
        </mxCell>
        <mxCell id="BoZ32wy5WJJVuOqSIw8r-131" value="주소" style="ellipse;whiteSpace=wrap;html=1;fillColor=#f5f5f5;fontColor=#333333;strokeColor=#666666;strokeWidth=2;fontSize=18;fontStyle=1" parent="1" vertex="1">
          <mxGeometry x="-233.5" y="430" width="120" height="80" as="geometry" />
        </mxCell>
        <mxCell id="BoZ32wy5WJJVuOqSIw8r-132" value="전화번호" style="ellipse;whiteSpace=wrap;html=1;fillColor=#f5f5f5;fontColor=#333333;strokeColor=#666666;strokeWidth=2;fontSize=18;fontStyle=1" parent="1" vertex="1">
          <mxGeometry y="330" width="120" height="80" as="geometry" />
        </mxCell>
        <mxCell id="BoZ32wy5WJJVuOqSIw8r-133" value="주인아이디" style="ellipse;whiteSpace=wrap;html=1;fillColor=#f5f5f5;fontColor=#333333;strokeColor=#666666;strokeWidth=2;fontSize=18;fontStyle=1" parent="1" vertex="1">
          <mxGeometry x="-40" y="590" width="120" height="80" as="geometry" />
        </mxCell>
        <mxCell id="BoZ32wy5WJJVuOqSIw8r-134" value="계좌번호" style="ellipse;whiteSpace=wrap;html=1;fillColor=#f5f5f5;fontColor=#333333;strokeColor=#666666;strokeWidth=2;fontSize=18;fontStyle=1" parent="1" vertex="1">
          <mxGeometry x="-170" y="580" width="120" height="80" as="geometry" />
        </mxCell>
        <mxCell id="BoZ32wy5WJJVuOqSIw8r-135" value="" style="endArrow=none;html=1;rounded=0;strokeWidth=2;exitX=0.25;exitY=0;exitDx=0;exitDy=0;entryX=0.5;entryY=1;entryDx=0;entryDy=0;" parent="1" source="BoZ32wy5WJJVuOqSIw8r-4" target="BoZ32wy5WJJVuOqSIw8r-128" edge="1">
          <mxGeometry width="50" height="50" relative="1" as="geometry">
            <mxPoint x="-308.5" y="355" as="sourcePoint" />
            <mxPoint x="-11.5" y="392" as="targetPoint" />
          </mxGeometry>
        </mxCell>
        <mxCell id="BoZ32wy5WJJVuOqSIw8r-136" value="" style="endArrow=none;html=1;rounded=0;strokeWidth=2;entryX=0.5;entryY=1;entryDx=0;entryDy=0;exitX=0.5;exitY=0;exitDx=0;exitDy=0;" parent="1" source="BoZ32wy5WJJVuOqSIw8r-4" target="BoZ32wy5WJJVuOqSIw8r-130" edge="1">
          <mxGeometry width="50" height="50" relative="1" as="geometry">
            <mxPoint x="-86.5" y="545" as="sourcePoint" />
            <mxPoint x="-106.5" y="560" as="targetPoint" />
          </mxGeometry>
        </mxCell>
        <mxCell id="BoZ32wy5WJJVuOqSIw8r-137" value="" style="endArrow=none;html=1;rounded=0;strokeWidth=2;entryX=1;entryY=1;entryDx=0;entryDy=0;exitX=0;exitY=0.5;exitDx=0;exitDy=0;" parent="1" source="BoZ32wy5WJJVuOqSIw8r-4" target="BoZ32wy5WJJVuOqSIw8r-131" edge="1">
          <mxGeometry width="50" height="50" relative="1" as="geometry">
            <mxPoint x="11.5" y="545" as="sourcePoint" />
            <mxPoint x="23.5" y="560" as="targetPoint" />
          </mxGeometry>
        </mxCell>
        <mxCell id="BoZ32wy5WJJVuOqSIw8r-138" value="" style="endArrow=none;html=1;rounded=0;strokeWidth=2;entryX=0.5;entryY=1;entryDx=0;entryDy=0;" parent="1" target="BoZ32wy5WJJVuOqSIw8r-132" edge="1">
          <mxGeometry width="50" height="50" relative="1" as="geometry">
            <mxPoint x="5" y="500" as="sourcePoint" />
            <mxPoint x="60.5" y="510" as="targetPoint" />
          </mxGeometry>
        </mxCell>
        <mxCell id="BoZ32wy5WJJVuOqSIw8r-139" value="" style="endArrow=none;html=1;rounded=0;strokeWidth=2;entryX=1;entryY=0.5;entryDx=0;entryDy=0;exitX=0;exitY=0.75;exitDx=0;exitDy=0;" parent="1" source="BoZ32wy5WJJVuOqSIw8r-4" target="BoZ32wy5WJJVuOqSIw8r-129" edge="1">
          <mxGeometry width="50" height="50" relative="1" as="geometry">
            <mxPoint x="44.5" y="528" as="sourcePoint" />
            <mxPoint x="-76.5" y="630" as="targetPoint" />
          </mxGeometry>
        </mxCell>
        <mxCell id="BoZ32wy5WJJVuOqSIw8r-140" value="" style="endArrow=none;html=1;rounded=0;strokeWidth=2;entryX=1;entryY=0;entryDx=0;entryDy=0;exitX=0.25;exitY=1;exitDx=0;exitDy=0;" parent="1" source="BoZ32wy5WJJVuOqSIw8r-4" target="BoZ32wy5WJJVuOqSIw8r-134" edge="1">
          <mxGeometry width="50" height="50" relative="1" as="geometry">
            <mxPoint x="-53.5" y="545" as="sourcePoint" />
            <mxPoint x="-66.5" y="640" as="targetPoint" />
          </mxGeometry>
        </mxCell>
        <mxCell id="BoZ32wy5WJJVuOqSIw8r-141" value="" style="endArrow=none;html=1;rounded=0;strokeWidth=2;entryX=0.5;entryY=0;entryDx=0;entryDy=0;exitX=0.75;exitY=1;exitDx=0;exitDy=0;" parent="1" source="BoZ32wy5WJJVuOqSIw8r-4" target="BoZ32wy5WJJVuOqSIw8r-133" edge="1">
          <mxGeometry width="50" height="50" relative="1" as="geometry">
            <mxPoint x="-20.5" y="545" as="sourcePoint" />
            <mxPoint x="13.5" y="710" as="targetPoint" />
          </mxGeometry>
        </mxCell>
        <mxCell id="bvd-KYPhyM2sc9IYxR3U-3" value="" style="rounded=0;whiteSpace=wrap;html=1;fillColor=none;strokeColor=light-dark(#b913e7, #ededed);strokeWidth=3;" vertex="1" parent="1">
          <mxGeometry x="737.75" y="690" width="84.5" height="60" as="geometry" />
        </mxCell>
        <mxCell id="bvd-KYPhyM2sc9IYxR3U-4" value="" style="rounded=0;whiteSpace=wrap;html=1;fillColor=none;strokeColor=light-dark(#b913e7, #ededed);strokeWidth=3;" vertex="1" parent="1">
          <mxGeometry x="-19" y="812.5" width="100" height="60" as="geometry" />
        </mxCell>
        <mxCell id="bvd-KYPhyM2sc9IYxR3U-5" value="" style="rounded=0;whiteSpace=wrap;html=1;fillColor=none;strokeColor=light-dark(#b913e7, #ededed);strokeWidth=3;" vertex="1" parent="1">
          <mxGeometry x="707.75" y="955" width="84.5" height="50" as="geometry" />
        </mxCell>
        <mxCell id="bvd-KYPhyM2sc9IYxR3U-6" value="" style="rounded=0;whiteSpace=wrap;html=1;fillColor=none;strokeColor=#00FFFF;strokeWidth=3;fontColor=#00CCCC;" vertex="1" parent="1">
          <mxGeometry x="515.5" y="565" width="84.5" height="60" as="geometry" />
        </mxCell>
        <mxCell id="bvd-KYPhyM2sc9IYxR3U-7" value="" style="rounded=0;whiteSpace=wrap;html=1;fillColor=none;strokeColor=light-dark(#b913e7, #ededed);strokeWidth=3;" vertex="1" parent="1">
          <mxGeometry x="547.75" y="360" width="84.5" height="60" as="geometry" />
        </mxCell>
        <mxCell id="bvd-KYPhyM2sc9IYxR3U-8" value="" style="rounded=0;whiteSpace=wrap;html=1;fillColor=none;strokeColor=light-dark(#b913e7, #ededed);strokeWidth=3;" vertex="1" parent="1">
          <mxGeometry x="395.5" y="717.5" width="84.5" height="55" as="geometry" />
        </mxCell>
        <mxCell id="bvd-KYPhyM2sc9IYxR3U-9" value="PK" style="text;html=1;align=center;verticalAlign=middle;whiteSpace=wrap;rounded=0;fillColor=none;fontColor=#9933FF;fontStyle=1;fontSize=18;" vertex="1" parent="1">
          <mxGeometry x="720" y="660" width="60" height="30" as="geometry" />
        </mxCell>
        <mxCell id="bvd-KYPhyM2sc9IYxR3U-10" value="PK" style="text;html=1;align=center;verticalAlign=middle;whiteSpace=wrap;rounded=0;fillColor=none;fontColor=#9933FF;fontStyle=1;fontSize=18;" vertex="1" parent="1">
          <mxGeometry x="-50" y="569" width="60" height="30" as="geometry" />
        </mxCell>
        <mxCell id="bvd-KYPhyM2sc9IYxR3U-11" value="PK" style="text;html=1;align=center;verticalAlign=middle;whiteSpace=wrap;rounded=0;fillColor=none;fontColor=#9933FF;fontStyle=1;fontSize=18;" vertex="1" parent="1">
          <mxGeometry x="-40" y="782.5" width="60" height="30" as="geometry" />
        </mxCell>
        <mxCell id="bvd-KYPhyM2sc9IYxR3U-12" value="PK" style="text;html=1;align=center;verticalAlign=middle;whiteSpace=wrap;rounded=0;fillColor=none;fontColor=#9933FF;fontStyle=1;fontSize=18;" vertex="1" parent="1">
          <mxGeometry x="750" y="925" width="60" height="30" as="geometry" />
        </mxCell>
        <mxCell id="bvd-KYPhyM2sc9IYxR3U-13" value="PK" style="text;html=1;align=center;verticalAlign=middle;whiteSpace=wrap;rounded=0;fillColor=none;fontColor=#9933FF;fontStyle=1;fontSize=18;" vertex="1" parent="1">
          <mxGeometry x="530" y="330" width="60" height="30" as="geometry" />
        </mxCell>
        <mxCell id="bvd-KYPhyM2sc9IYxR3U-14" value="PK" style="text;html=1;align=center;verticalAlign=middle;whiteSpace=wrap;rounded=0;fillColor=none;fontColor=#9933FF;fontStyle=1;fontSize=18;" vertex="1" parent="1">
          <mxGeometry x="380" y="775" width="60" height="30" as="geometry" />
        </mxCell>
        <mxCell id="bvd-KYPhyM2sc9IYxR3U-15" value="FK" style="text;html=1;align=center;verticalAlign=middle;whiteSpace=wrap;rounded=0;fillColor=none;fontColor=#00CCCC;fontStyle=1;fontSize=18;" vertex="1" parent="1">
          <mxGeometry x="497.75" y="535" width="60" height="30" as="geometry" />
        </mxCell>
        <mxCell id="bvd-KYPhyM2sc9IYxR3U-17" value="" style="rounded=0;whiteSpace=wrap;html=1;fillColor=none;strokeColor=#00FFFF;strokeWidth=3;fontColor=#00CCCC;" vertex="1" parent="1">
          <mxGeometry x="520" y="655" width="102.25" height="60" as="geometry" />
        </mxCell>
        <mxCell id="bvd-KYPhyM2sc9IYxR3U-18" value="FK" style="text;html=1;align=center;verticalAlign=middle;whiteSpace=wrap;rounded=0;fillColor=none;fontColor=#00CCCC;fontStyle=1;fontSize=18;" vertex="1" parent="1">
          <mxGeometry x="500" y="715" width="60" height="30" as="geometry" />
        </mxCell>
        <mxCell id="bvd-KYPhyM2sc9IYxR3U-19" value="" style="rounded=0;whiteSpace=wrap;html=1;fillColor=none;strokeColor=#00FFFF;strokeWidth=3;fontColor=#00CCCC;" vertex="1" parent="1">
          <mxGeometry x="267.75" y="715" width="84.5" height="60" as="geometry" />
        </mxCell>
        <mxCell id="bvd-KYPhyM2sc9IYxR3U-20" value="FK" style="text;html=1;align=center;verticalAlign=middle;whiteSpace=wrap;rounded=0;fillColor=none;fontColor=#00CCCC;fontStyle=1;fontSize=18;" vertex="1" parent="1">
          <mxGeometry x="250" y="775" width="60" height="30" as="geometry" />
        </mxCell>
        <mxCell id="bvd-KYPhyM2sc9IYxR3U-21" value="" style="rounded=0;whiteSpace=wrap;html=1;fillColor=none;strokeColor=#00FFFF;strokeWidth=3;fontColor=#00CCCC;" vertex="1" parent="1">
          <mxGeometry x="635.5" y="870" width="84.5" height="60" as="geometry" />
        </mxCell>
        <mxCell id="bvd-KYPhyM2sc9IYxR3U-22" value="FK" style="text;html=1;align=center;verticalAlign=middle;whiteSpace=wrap;rounded=0;fillColor=none;fontColor=#00CCCC;fontStyle=1;fontSize=18;" vertex="1" parent="1">
          <mxGeometry x="621" y="840" width="60" height="30" as="geometry" />
        </mxCell>
        <mxCell id="bvd-KYPhyM2sc9IYxR3U-23" value="" style="endArrow=none;dashed=1;html=1;rounded=0;exitX=0;exitY=0.5;exitDx=0;exitDy=0;strokeWidth=2;entryX=0.903;entryY=-0.019;entryDx=0;entryDy=0;entryPerimeter=0;" edge="1" parent="1" source="BoZ32wy5WJJVuOqSIw8r-56" target="bvd-KYPhyM2sc9IYxR3U-4">
          <mxGeometry width="50" height="50" relative="1" as="geometry">
            <mxPoint x="730" y="730" as="sourcePoint" />
            <mxPoint x="640" y="695" as="targetPoint" />
          </mxGeometry>
        </mxCell>
        <mxCell id="bvd-KYPhyM2sc9IYxR3U-25" value="FK" style="text;html=1;align=center;verticalAlign=middle;whiteSpace=wrap;rounded=0;fillColor=none;fontColor=#00CCCC;fontStyle=1;fontSize=18;" vertex="1" parent="1">
          <mxGeometry x="335.5" y="940" width="60" height="30" as="geometry" />
        </mxCell>
        <mxCell id="bvd-KYPhyM2sc9IYxR3U-26" value="" style="rounded=0;whiteSpace=wrap;html=1;fillColor=none;strokeColor=#00FFFF;strokeWidth=3;fontColor=#00CCCC;" vertex="1" parent="1">
          <mxGeometry x="375" y="855" width="90" height="60" as="geometry" />
        </mxCell>
        <mxCell id="bvd-KYPhyM2sc9IYxR3U-27" value="FK" style="text;html=1;align=center;verticalAlign=middle;whiteSpace=wrap;rounded=0;fillColor=none;fontColor=#00CCCC;fontStyle=1;fontSize=18;" vertex="1" parent="1">
          <mxGeometry x="352.25" y="825" width="60" height="30" as="geometry" />
        </mxCell>
        <mxCell id="bvd-KYPhyM2sc9IYxR3U-29" value="" style="endArrow=none;html=1;rounded=0;strokeWidth=2;entryX=1;entryY=1;entryDx=0;entryDy=0;exitX=0;exitY=0;exitDx=0;exitDy=0;" edge="1" parent="1" source="BoZ32wy5WJJVuOqSIw8r-7" target="bvd-KYPhyM2sc9IYxR3U-28">
          <mxGeometry width="50" height="50" relative="1" as="geometry">
            <mxPoint x="530" y="970" as="sourcePoint" />
            <mxPoint x="510" y="980" as="targetPoint" />
          </mxGeometry>
        </mxCell>
        <mxCell id="bvd-KYPhyM2sc9IYxR3U-32" value="" style="endArrow=none;dashed=1;html=1;rounded=0;exitX=0.5;exitY=0;exitDx=0;exitDy=0;strokeWidth=2;entryX=0.5;entryY=1;entryDx=0;entryDy=0;" edge="1" parent="1" source="bvd-KYPhyM2sc9IYxR3U-28" target="BoZ32wy5WJJVuOqSIw8r-53">
          <mxGeometry width="50" height="50" relative="1" as="geometry">
            <mxPoint x="730" y="730" as="sourcePoint" />
            <mxPoint x="640" y="695" as="targetPoint" />
          </mxGeometry>
        </mxCell>
        <mxCell id="bvd-KYPhyM2sc9IYxR3U-34" value="" style="endArrow=none;dashed=1;html=1;rounded=0;strokeWidth=2;entryX=1;entryY=0.5;entryDx=0;entryDy=0;exitX=1;exitY=0;exitDx=0;exitDy=0;" edge="1" parent="1" source="bvd-KYPhyM2sc9IYxR3U-25" target="BoZ32wy5WJJVuOqSIw8r-109">
          <mxGeometry width="50" height="50" relative="1" as="geometry">
            <mxPoint x="310" y="940" as="sourcePoint" />
            <mxPoint x="111" y="679" as="targetPoint" />
          </mxGeometry>
        </mxCell>
        <mxCell id="bvd-KYPhyM2sc9IYxR3U-24" value="" style="rounded=0;whiteSpace=wrap;html=1;fillColor=none;strokeColor=#00FFFF;strokeWidth=3;fontColor=#00CCCC;" vertex="1" parent="1">
          <mxGeometry x="391.12" y="940" width="97.75" height="60" as="geometry" />
        </mxCell>
        <mxCell id="bvd-KYPhyM2sc9IYxR3U-36" value="" style="rounded=0;whiteSpace=wrap;html=1;fillColor=none;strokeColor=light-dark(#b913e7, #ededed);strokeWidth=3;" vertex="1" parent="1">
          <mxGeometry x="-30" y="600" width="100" height="60" as="geometry" />
        </mxCell>
        <mxCell id="bvd-KYPhyM2sc9IYxR3U-37" value="" style="endArrow=none;dashed=1;html=1;rounded=0;exitX=0.5;exitY=1;exitDx=0;exitDy=0;strokeWidth=2;entryX=1;entryY=0;entryDx=0;entryDy=0;" edge="1" parent="1" source="BoZ32wy5WJJVuOqSIw8r-133" target="BoZ32wy5WJJVuOqSIw8r-111">
          <mxGeometry width="50" height="50" relative="1" as="geometry">
            <mxPoint x="260" y="755" as="sourcePoint" />
            <mxPoint x="81" y="821" as="targetPoint" />
          </mxGeometry>
        </mxCell>
        <mxCell id="bvd-KYPhyM2sc9IYxR3U-38" value="" style="endArrow=none;dashed=1;html=1;rounded=0;exitX=0.5;exitY=1;exitDx=0;exitDy=0;strokeWidth=2;entryX=1;entryY=0.5;entryDx=0;entryDy=0;" edge="1" parent="1" source="BoZ32wy5WJJVuOqSIw8r-38">
          <mxGeometry width="50" height="50" relative="1" as="geometry">
            <mxPoint x="730" y="730" as="sourcePoint" />
            <mxPoint x="640" y="695" as="targetPoint" />
          </mxGeometry>
        </mxCell>
        <mxCell id="bvd-KYPhyM2sc9IYxR3U-39" value="" style="rounded=0;whiteSpace=wrap;html=1;fillColor=none;strokeColor=#00FFFF;strokeWidth=3;fontColor=#00CCCC;" vertex="1" parent="1">
          <mxGeometry x="-200" y="802.5" width="100" height="60" as="geometry" />
        </mxCell>
        <mxCell id="bvd-KYPhyM2sc9IYxR3U-40" value="FK" style="text;html=1;align=center;verticalAlign=middle;whiteSpace=wrap;rounded=0;fillColor=none;fontColor=#00CCCC;fontStyle=1;fontSize=18;" vertex="1" parent="1">
          <mxGeometry x="-220" y="775" width="60" height="30" as="geometry" />
        </mxCell>
      </root>
    </mxGraphModel>
  </diagram>
</mxfile>
